<svg xmlns="http://www.w3.org/2000/svg" viewBox="0 0 256 192">
  <defs><filter id="s"><feDropShadow dx="0" dy="6" stdDeviation="5" flood-opacity=".2"/></filter></defs>
  <g filter="url(#s)" stroke="#527a46" stroke-width="4"><circle cx="128" cy="105" r="61" fill="#8fbd72"/><path d="M128 48c-35 27-36 83 0 117 36-34 35-90 0-117Z" fill="#b0d38f"/><path d="M75 79c30 2 57 28 53 86-38-10-62-42-53-86Z" fill="#9bc77d"/><path d="M181 79c-30 2-57 28-53 86 38-10 62-42 53-86Z" fill="#9bc77d"/><path d="M96 55c20 17 31 50 32 110M160 55c-20 17-31 50-32 110" fill="none"/></g>
</svg>
