<svg xmlns="http://www.w3.org/2000/svg" viewBox="0 0 256 192">
  <defs><filter id="s"><feDropShadow dx="0" dy="6" stdDeviation="4" flood-opacity=".2"/></filter></defs>
  <g filter="url(#s)"><path d="M86 171c9-57 2-94-11-133m46 133c2-67 3-107 0-148m47 148c-10-59-4-99 14-137" fill="none" stroke="#89ba70" stroke-width="17" stroke-linecap="round"/><path d="M76 52C47 47 35 30 33 13c27 0 46 11 55 34m34-7C99 28 93 11 99-4c25 9 38 24 35 43m45 11c26-7 39-23 42-40-27-2-47 8-57 34" fill="#5d9756" stroke="#417943" stroke-width="4"/></g>
</svg>
