<svg xmlns="http://www.w3.org/2000/svg" viewBox="0 0 256 192">
  <defs><filter id="s"><feDropShadow dx="0" dy="6" stdDeviation="5" flood-opacity=".22"/></filter></defs>
  <g filter="url(#s)"><path d="M128 170V84M128 125 82 103m46 30 51-37" fill="none" stroke="#5d8b55" stroke-width="7" stroke-linecap="round"/><g fill="#7282bd" stroke="#4e5e9a" stroke-width="3"><path d="M128 92c-32 0-48-21-42-46 16-2 29 3 42 17 13-14 26-19 42-17 6 25-10 46-42 46Z"/><path d="M78 119c-29-2-42-21-35-43 15-1 27 5 38 18 12-11 25-15 39-11 3 23-14 38-42 36Z"/><path d="M179 112c29-3 41-22 33-44-15 0-27 6-37 20-13-11-26-14-40-10-2 23 16 37 44 34Z"/></g><circle cx="128" cy="75" r="10" fill="#e6c05b"/></g>
</svg>
