<svg xmlns="http://www.w3.org/2000/svg" viewBox="0 0 256 192">
  <defs><filter id="s"><feDropShadow dx="0" dy="6" stdDeviation="5" flood-opacity=".22"/></filter></defs>
  <g filter="url(#s)"><path d="M128 38c8 27-5 41-8 54-3 13 8 19 8 19s11-6 8-19c-3-13-16-27-8-54Z" fill="#7fa25e"/><path d="M128 75c-18 12-49 28-55 60-5 28 17 43 39 38 7 10 25 10 32 0 22 5 44-10 39-38-6-32-37-48-55-60Z" fill="#efe4c9" stroke="#b8a98b" stroke-width="4"/><path d="M128 88v76M101 103c13 16 15 41 11 70M155 103c-13 16-15 41-11 70" fill="none" stroke="#c8baa0" stroke-width="4"/></g>
</svg>
