<svg xmlns="http://www.w3.org/2000/svg" viewBox="0 0 256 192">
  <defs><filter id="s"><feDropShadow dx="0" dy="6" stdDeviation="5" flood-opacity=".22"/></filter></defs>
  <g filter="url(#s)"><path d="M128 69c-48 0-69 26-61 62 7 32 34 45 61 45s54-13 61-45c8-36-13-62-61-62Z" fill="#f2e4d1"/><path d="M75 102c12-24 35-33 53-33s41 9 53 33c-35 14-71 14-106 0Z" fill="#b66c9c"/><path d="M128 71c-8-35 10-55 29-61-1 24-10 44-29 61Z" fill="#5e9a58"/><path d="M125 70c-21-26-43-23-58-12 22 4 39 9 58 12Z" fill="#72ad65"/><path d="M131 70c21-26 43-23 58-12-22 4-39 9-58 12Z" fill="#72ad65"/><path d="M128 174l-10 17h20Z" fill="#e6d5bd"/></g>
</svg>
