<svg xmlns="http://www.w3.org/2000/svg" viewBox="0 0 256 192">
  <defs><filter id="s"><feDropShadow dx="0" dy="6" stdDeviation="5" flood-opacity=".22"/></filter></defs>
  <g filter="url(#s)"><path d="M48 143c44-65 91-91 150-91 15 0 22 13 13 26-38 53-90 81-151 88-17 2-22-9-12-23Z" fill="#7ca653" stroke="#4f783f" stroke-width="5"/><path d="M78 137c32-37 70-58 113-70M96 151l-15-25m41 15-17-32m43 17-17-33m42 15-14-31" fill="none" stroke="#a9c77b" stroke-width="5" stroke-linecap="round"/><path d="M48 143c-18-4-29-18-31-34 23 4 40 13 49 26Z" fill="#5c8e49"/></g>
</svg>
